<mxfile host="app.diagrams.net" modified="2023-09-18T17:42:53.072Z" agent="Mozilla/5.0 (Windows NT 10.0; Win64; x64) AppleWebKit/537.36 (KHTML, like Gecko) Chrome/116.0.0.0 Safari/537.36" etag="oZEdnbbQA0zuYyJax_gp" version="21.7.5" type="github">
  <diagram name="Page-1" id="s7zrrwgHaPzpXVX8WTu6">
    <mxGraphModel dx="847" dy="729" grid="1" gridSize="10" guides="1" tooltips="1" connect="1" arrows="1" fold="1" page="1" pageScale="1" pageWidth="850" pageHeight="1100" background="#ffffff" math="0" shadow="0">
      <root>
        <mxCell id="0" />
        <mxCell id="1" parent="0" />
        <mxCell id="GKoCl5mRJuVTZbslMC3Y-10" value="" style="group" vertex="1" connectable="0" parent="1">
          <mxGeometry x="90" y="340" width="200" height="80" as="geometry" />
        </mxCell>
        <mxCell id="GKoCl5mRJuVTZbslMC3Y-5" value="" style="triangle;whiteSpace=wrap;html=1;rotation=-90;fillColor=#FFFFFF;" vertex="1" parent="GKoCl5mRJuVTZbslMC3Y-10">
          <mxGeometry x="20" y="50" width="40" height="80" as="geometry" />
        </mxCell>
        <mxCell id="GKoCl5mRJuVTZbslMC3Y-6" value="" style="triangle;whiteSpace=wrap;html=1;rotation=-90;fillColor=#FFFFFF;" vertex="1" parent="GKoCl5mRJuVTZbslMC3Y-10">
          <mxGeometry x="140" y="50" width="40" height="80" as="geometry" />
        </mxCell>
        <mxCell id="GKoCl5mRJuVTZbslMC3Y-7" value="" style="endArrow=none;html=1;rounded=0;exitX=1;exitY=0.5;exitDx=0;exitDy=0;" edge="1" parent="GKoCl5mRJuVTZbslMC3Y-10" source="GKoCl5mRJuVTZbslMC3Y-5">
          <mxGeometry width="50" height="50" relative="1" as="geometry">
            <mxPoint x="70" y="30" as="sourcePoint" />
            <mxPoint x="100" y="30" as="targetPoint" />
          </mxGeometry>
        </mxCell>
        <mxCell id="GKoCl5mRJuVTZbslMC3Y-8" value="" style="endArrow=none;html=1;rounded=0;entryX=1;entryY=0.5;entryDx=0;entryDy=0;" edge="1" parent="GKoCl5mRJuVTZbslMC3Y-10" target="GKoCl5mRJuVTZbslMC3Y-6">
          <mxGeometry width="50" height="50" relative="1" as="geometry">
            <mxPoint x="100" y="30" as="sourcePoint" />
            <mxPoint x="110" y="40" as="targetPoint" />
          </mxGeometry>
        </mxCell>
        <mxCell id="GKoCl5mRJuVTZbslMC3Y-88" value="&lt;font style=&quot;font-size: 21px;&quot;&gt;&lt;i&gt;&lt;font face=&quot;Times New Roman&quot;&gt;Γ&lt;/font&gt;&lt;/i&gt;&lt;sub&gt;2&lt;br&gt;&lt;/sub&gt;&lt;/font&gt;" style="text;html=1;strokeColor=none;fillColor=none;align=center;verticalAlign=middle;whiteSpace=wrap;rounded=0;" vertex="1" parent="GKoCl5mRJuVTZbslMC3Y-10">
          <mxGeometry y="-10" width="200" height="50" as="geometry" />
        </mxCell>
        <mxCell id="GKoCl5mRJuVTZbslMC3Y-11" value="" style="group" vertex="1" connectable="0" parent="1">
          <mxGeometry x="90" y="180" width="210" height="80" as="geometry" />
        </mxCell>
        <mxCell id="GKoCl5mRJuVTZbslMC3Y-1" value="" style="triangle;whiteSpace=wrap;html=1;rotation=-90;fillColor=#333333;" vertex="1" parent="GKoCl5mRJuVTZbslMC3Y-11">
          <mxGeometry x="20" y="20" width="40" height="80" as="geometry" />
        </mxCell>
        <mxCell id="GKoCl5mRJuVTZbslMC3Y-2" value="" style="triangle;whiteSpace=wrap;html=1;rotation=-90;fillColor=#333333;" vertex="1" parent="GKoCl5mRJuVTZbslMC3Y-11">
          <mxGeometry x="140" y="20" width="40" height="80" as="geometry" />
        </mxCell>
        <mxCell id="GKoCl5mRJuVTZbslMC3Y-3" value="" style="endArrow=none;html=1;rounded=0;exitX=1;exitY=0.5;exitDx=0;exitDy=0;" edge="1" parent="GKoCl5mRJuVTZbslMC3Y-11" source="GKoCl5mRJuVTZbslMC3Y-1">
          <mxGeometry width="50" height="50" relative="1" as="geometry">
            <mxPoint x="70" as="sourcePoint" />
            <mxPoint x="100" as="targetPoint" />
          </mxGeometry>
        </mxCell>
        <mxCell id="GKoCl5mRJuVTZbslMC3Y-4" value="" style="endArrow=none;html=1;rounded=0;entryX=1;entryY=0.5;entryDx=0;entryDy=0;" edge="1" parent="GKoCl5mRJuVTZbslMC3Y-11" target="GKoCl5mRJuVTZbslMC3Y-2">
          <mxGeometry width="50" height="50" relative="1" as="geometry">
            <mxPoint x="100" as="sourcePoint" />
            <mxPoint x="110" y="10" as="targetPoint" />
          </mxGeometry>
        </mxCell>
        <mxCell id="GKoCl5mRJuVTZbslMC3Y-17" value="" style="group" vertex="1" connectable="0" parent="1">
          <mxGeometry x="368.28" y="90" width="314.37" height="107.02999999999997" as="geometry" />
        </mxCell>
        <mxCell id="GKoCl5mRJuVTZbslMC3Y-12" value="" style="triangle;whiteSpace=wrap;html=1;rotation=-90;" vertex="1" parent="GKoCl5mRJuVTZbslMC3Y-17">
          <mxGeometry x="27.350000000000023" y="14.379999999999995" width="65.3" height="120" as="geometry" />
        </mxCell>
        <mxCell id="GKoCl5mRJuVTZbslMC3Y-13" value="" style="triangle;whiteSpace=wrap;html=1;rotation=-90;" vertex="1" parent="GKoCl5mRJuVTZbslMC3Y-17">
          <mxGeometry x="181.72000000000003" y="14.379999999999995" width="65.3" height="120" as="geometry" />
        </mxCell>
        <mxCell id="GKoCl5mRJuVTZbslMC3Y-15" value="" style="endArrow=none;html=1;rounded=0;" edge="1" parent="GKoCl5mRJuVTZbslMC3Y-17">
          <mxGeometry width="50" height="50" relative="1" as="geometry">
            <mxPoint x="61.72000000000003" y="40" as="sourcePoint" />
            <mxPoint x="141.72000000000003" as="targetPoint" />
          </mxGeometry>
        </mxCell>
        <mxCell id="GKoCl5mRJuVTZbslMC3Y-16" value="" style="endArrow=none;html=1;rounded=0;entryX=1;entryY=0.5;entryDx=0;entryDy=0;" edge="1" parent="GKoCl5mRJuVTZbslMC3Y-17" target="GKoCl5mRJuVTZbslMC3Y-13">
          <mxGeometry width="50" height="50" relative="1" as="geometry">
            <mxPoint x="141.72000000000003" as="sourcePoint" />
            <mxPoint x="161.72000000000003" y="10" as="targetPoint" />
          </mxGeometry>
        </mxCell>
        <mxCell id="GKoCl5mRJuVTZbslMC3Y-38" value="" style="group" vertex="1" connectable="0" parent="GKoCl5mRJuVTZbslMC3Y-17">
          <mxGeometry x="31.720000000000027" y="80" width="50" height="20" as="geometry" />
        </mxCell>
        <mxCell id="GKoCl5mRJuVTZbslMC3Y-39" value="" style="triangle;whiteSpace=wrap;html=1;rotation=-90;fillColor=#FFFFFF;" vertex="1" parent="GKoCl5mRJuVTZbslMC3Y-38">
          <mxGeometry x="5" y="5" width="10" height="20" as="geometry" />
        </mxCell>
        <mxCell id="GKoCl5mRJuVTZbslMC3Y-40" value="" style="triangle;whiteSpace=wrap;html=1;rotation=-90;fillColor=#FFFFFF;" vertex="1" parent="GKoCl5mRJuVTZbslMC3Y-38">
          <mxGeometry x="35.00000000000001" y="5" width="10" height="20" as="geometry" />
        </mxCell>
        <mxCell id="GKoCl5mRJuVTZbslMC3Y-41" value="" style="endArrow=none;html=1;rounded=0;exitX=1;exitY=0.5;exitDx=0;exitDy=0;" edge="1" parent="GKoCl5mRJuVTZbslMC3Y-38" source="GKoCl5mRJuVTZbslMC3Y-39">
          <mxGeometry width="50" height="50" relative="1" as="geometry">
            <mxPoint x="17.500000000000004" as="sourcePoint" />
            <mxPoint x="25" as="targetPoint" />
          </mxGeometry>
        </mxCell>
        <mxCell id="GKoCl5mRJuVTZbslMC3Y-42" value="" style="endArrow=none;html=1;rounded=0;entryX=1;entryY=0.5;entryDx=0;entryDy=0;" edge="1" parent="GKoCl5mRJuVTZbslMC3Y-38" target="GKoCl5mRJuVTZbslMC3Y-40">
          <mxGeometry width="50" height="50" relative="1" as="geometry">
            <mxPoint x="25" as="sourcePoint" />
            <mxPoint x="27.5" y="2.5" as="targetPoint" />
          </mxGeometry>
        </mxCell>
        <mxCell id="GKoCl5mRJuVTZbslMC3Y-44" value="" style="group" vertex="1" connectable="0" parent="GKoCl5mRJuVTZbslMC3Y-17">
          <mxGeometry x="189.37" y="80" width="50" height="20" as="geometry" />
        </mxCell>
        <mxCell id="GKoCl5mRJuVTZbslMC3Y-45" value="" style="triangle;whiteSpace=wrap;html=1;rotation=-90;fillColor=#333333;" vertex="1" parent="GKoCl5mRJuVTZbslMC3Y-44">
          <mxGeometry x="5" y="5" width="10" height="20" as="geometry" />
        </mxCell>
        <mxCell id="GKoCl5mRJuVTZbslMC3Y-46" value="" style="triangle;whiteSpace=wrap;html=1;rotation=-90;fillColor=#333333;" vertex="1" parent="GKoCl5mRJuVTZbslMC3Y-44">
          <mxGeometry x="35.00000000000001" y="5" width="10" height="20" as="geometry" />
        </mxCell>
        <mxCell id="GKoCl5mRJuVTZbslMC3Y-47" value="" style="endArrow=none;html=1;rounded=0;exitX=1;exitY=0.5;exitDx=0;exitDy=0;" edge="1" parent="GKoCl5mRJuVTZbslMC3Y-44" source="GKoCl5mRJuVTZbslMC3Y-45">
          <mxGeometry width="50" height="50" relative="1" as="geometry">
            <mxPoint x="17.500000000000004" as="sourcePoint" />
            <mxPoint x="25" as="targetPoint" />
          </mxGeometry>
        </mxCell>
        <mxCell id="GKoCl5mRJuVTZbslMC3Y-48" value="" style="endArrow=none;html=1;rounded=0;entryX=1;entryY=0.5;entryDx=0;entryDy=0;" edge="1" parent="GKoCl5mRJuVTZbslMC3Y-44" target="GKoCl5mRJuVTZbslMC3Y-46">
          <mxGeometry width="50" height="50" relative="1" as="geometry">
            <mxPoint x="25" as="sourcePoint" />
            <mxPoint x="27.5" y="2.5" as="targetPoint" />
          </mxGeometry>
        </mxCell>
        <mxCell id="GKoCl5mRJuVTZbslMC3Y-90" value="&lt;font style=&quot;font-size: 15px;&quot;&gt;&lt;i style=&quot;&quot;&gt;&lt;font style=&quot;font-size: 15px;&quot; face=&quot;Times New Roman&quot;&gt;Γ&lt;/font&gt;&lt;/i&gt;&lt;sub style=&quot;&quot;&gt;1&lt;/sub&gt;&lt;/font&gt;&lt;span style=&quot;box-sizing: border-box; color: transparent; cursor: text; position: absolute; transform-origin: 0px 0px; text-align: start; background-color: rgb(255, 255, 255); left: 298.863px; top: 208.914px; font-family: sans-serif; font-size: 15px;&quot; dir=&quot;ltr&quot; role=&quot;presentation&quot;&gt;&lt;font style=&quot;font-size: 15px;&quot;&gt;2&lt;/font&gt;&lt;/span&gt;&lt;span style=&quot;box-sizing: border-box; color: transparent; cursor: text; position: absolute; transform-origin: 0px 0px; text-align: start; background-color: rgb(255, 255, 255); left: 298.863px; top: 208.914px; font-family: sans-serif; font-size: 15px;&quot; dir=&quot;ltr&quot; role=&quot;presentation&quot;&gt;&lt;font style=&quot;font-size: 15px;&quot;&gt;&lt;br&gt;&lt;/font&gt;&lt;/span&gt;&lt;span style=&quot;box-sizing: border-box; color: transparent; cursor: text; position: absolute; transform-origin: 0px 0px; text-align: start; background-color: rgb(255, 255, 255); left: 298.863px; top: 208.914px; font-family: sans-serif; font-size: 15px;&quot; dir=&quot;ltr&quot; role=&quot;presentation&quot;&gt;&lt;font style=&quot;font-size: 15px;&quot;&gt;2&lt;/font&gt;&lt;/span&gt;" style="text;html=1;strokeColor=none;fillColor=none;align=center;verticalAlign=middle;whiteSpace=wrap;rounded=0;" vertex="1" parent="GKoCl5mRJuVTZbslMC3Y-17">
          <mxGeometry x="116.37" y="45" width="200" height="50" as="geometry" />
        </mxCell>
        <mxCell id="GKoCl5mRJuVTZbslMC3Y-96" value="&lt;font style=&quot;font-size: 15px;&quot;&gt;&lt;i&gt;&lt;font style=&quot;font-size: 15px;&quot; face=&quot;Times New Roman&quot;&gt;Γ&lt;/font&gt;&lt;/i&gt;&lt;sub&gt;2&lt;br&gt;&lt;/sub&gt;&lt;/font&gt;" style="text;html=1;strokeColor=none;fillColor=none;align=center;verticalAlign=middle;whiteSpace=wrap;rounded=0;" vertex="1" parent="GKoCl5mRJuVTZbslMC3Y-17">
          <mxGeometry x="-42.28" y="44" width="200" height="50" as="geometry" />
        </mxCell>
        <mxCell id="GKoCl5mRJuVTZbslMC3Y-18" value="" style="group" vertex="1" connectable="0" parent="1">
          <mxGeometry x="370" y="240" width="320" height="107.02999999999997" as="geometry" />
        </mxCell>
        <mxCell id="GKoCl5mRJuVTZbslMC3Y-19" value="" style="triangle;whiteSpace=wrap;html=1;rotation=-90;" vertex="1" parent="GKoCl5mRJuVTZbslMC3Y-18">
          <mxGeometry x="27.350000000000023" y="14.379999999999995" width="65.3" height="120" as="geometry" />
        </mxCell>
        <mxCell id="GKoCl5mRJuVTZbslMC3Y-20" value="" style="triangle;whiteSpace=wrap;html=1;rotation=-90;" vertex="1" parent="GKoCl5mRJuVTZbslMC3Y-18">
          <mxGeometry x="181.72000000000003" y="14.379999999999995" width="65.3" height="120" as="geometry" />
        </mxCell>
        <mxCell id="GKoCl5mRJuVTZbslMC3Y-21" value="" style="endArrow=none;html=1;rounded=0;" edge="1" parent="GKoCl5mRJuVTZbslMC3Y-18">
          <mxGeometry width="50" height="50" relative="1" as="geometry">
            <mxPoint x="61.72000000000003" y="40" as="sourcePoint" />
            <mxPoint x="141.72000000000003" as="targetPoint" />
          </mxGeometry>
        </mxCell>
        <mxCell id="GKoCl5mRJuVTZbslMC3Y-22" value="" style="endArrow=none;html=1;rounded=0;entryX=1;entryY=0.5;entryDx=0;entryDy=0;" edge="1" parent="GKoCl5mRJuVTZbslMC3Y-18" target="GKoCl5mRJuVTZbslMC3Y-20">
          <mxGeometry width="50" height="50" relative="1" as="geometry">
            <mxPoint x="141.72000000000003" as="sourcePoint" />
            <mxPoint x="161.72000000000003" y="10" as="targetPoint" />
          </mxGeometry>
        </mxCell>
        <mxCell id="GKoCl5mRJuVTZbslMC3Y-54" value="" style="group" vertex="1" connectable="0" parent="GKoCl5mRJuVTZbslMC3Y-18">
          <mxGeometry x="16" y="80" width="50" height="20" as="geometry" />
        </mxCell>
        <mxCell id="GKoCl5mRJuVTZbslMC3Y-50" value="" style="triangle;whiteSpace=wrap;html=1;rotation=-90;fillColor=#FFFFFF;container=0;" vertex="1" parent="GKoCl5mRJuVTZbslMC3Y-54">
          <mxGeometry x="5" y="5" width="10" height="20" as="geometry" />
        </mxCell>
        <mxCell id="GKoCl5mRJuVTZbslMC3Y-51" value="" style="triangle;whiteSpace=wrap;html=1;rotation=-90;fillColor=#FFFFFF;container=0;" vertex="1" parent="GKoCl5mRJuVTZbslMC3Y-54">
          <mxGeometry x="35" y="5" width="10" height="20" as="geometry" />
        </mxCell>
        <mxCell id="GKoCl5mRJuVTZbslMC3Y-52" value="" style="endArrow=none;html=1;rounded=0;exitX=1;exitY=0.5;exitDx=0;exitDy=0;" edge="1" parent="GKoCl5mRJuVTZbslMC3Y-54" source="GKoCl5mRJuVTZbslMC3Y-50">
          <mxGeometry width="50" height="50" relative="1" as="geometry">
            <mxPoint x="17.5" as="sourcePoint" />
            <mxPoint x="25" as="targetPoint" />
          </mxGeometry>
        </mxCell>
        <mxCell id="GKoCl5mRJuVTZbslMC3Y-53" value="" style="endArrow=none;html=1;rounded=0;entryX=1;entryY=0.5;entryDx=0;entryDy=0;" edge="1" parent="GKoCl5mRJuVTZbslMC3Y-54" target="GKoCl5mRJuVTZbslMC3Y-51">
          <mxGeometry width="50" height="50" relative="1" as="geometry">
            <mxPoint x="25" as="sourcePoint" />
            <mxPoint x="27.5" y="2.5" as="targetPoint" />
          </mxGeometry>
        </mxCell>
        <mxCell id="GKoCl5mRJuVTZbslMC3Y-78" value="" style="triangle;whiteSpace=wrap;html=1;rotation=-90;fillColor=#333333;container=0;" vertex="1" parent="GKoCl5mRJuVTZbslMC3Y-18">
          <mxGeometry x="80" y="84" width="10" height="20" as="geometry" />
        </mxCell>
        <mxCell id="GKoCl5mRJuVTZbslMC3Y-79" value="" style="triangle;whiteSpace=wrap;html=1;rotation=-90;fillColor=#333333;container=0;" vertex="1" parent="GKoCl5mRJuVTZbslMC3Y-18">
          <mxGeometry x="210" y="85" width="10" height="20" as="geometry" />
        </mxCell>
        <mxCell id="GKoCl5mRJuVTZbslMC3Y-91" value="&lt;font style=&quot;font-size: 15px;&quot;&gt;&lt;i style=&quot;&quot;&gt;&lt;font style=&quot;font-size: 15px;&quot; face=&quot;Times New Roman&quot;&gt;Γ&lt;/font&gt;&lt;/i&gt;&lt;sub style=&quot;&quot;&gt;1,l&lt;/sub&gt;&lt;/font&gt;&lt;span style=&quot;box-sizing: border-box; color: transparent; cursor: text; position: absolute; transform-origin: 0px 0px; text-align: start; background-color: rgb(255, 255, 255); left: 298.863px; top: 208.914px; font-family: sans-serif; font-size: 15px;&quot; dir=&quot;ltr&quot; role=&quot;presentation&quot;&gt;&lt;font style=&quot;font-size: 15px;&quot;&gt;2&lt;/font&gt;&lt;/span&gt;&lt;span style=&quot;box-sizing: border-box; color: transparent; cursor: text; position: absolute; transform-origin: 0px 0px; text-align: start; background-color: rgb(255, 255, 255); left: 298.863px; top: 208.914px; font-family: sans-serif; font-size: 15px;&quot; dir=&quot;ltr&quot; role=&quot;presentation&quot;&gt;&lt;font style=&quot;font-size: 15px;&quot;&gt;&lt;br&gt;&lt;/font&gt;&lt;/span&gt;&lt;span style=&quot;box-sizing: border-box; color: transparent; cursor: text; position: absolute; transform-origin: 0px 0px; text-align: start; background-color: rgb(255, 255, 255); left: 298.863px; top: 208.914px; font-family: sans-serif; font-size: 15px;&quot; dir=&quot;ltr&quot; role=&quot;presentation&quot;&gt;&lt;font style=&quot;font-size: 15px;&quot;&gt;2&lt;/font&gt;&lt;/span&gt;" style="text;html=1;strokeColor=none;fillColor=none;align=center;verticalAlign=middle;whiteSpace=wrap;rounded=0;" vertex="1" parent="GKoCl5mRJuVTZbslMC3Y-18">
          <mxGeometry x="-22" y="50" width="200" height="50" as="geometry" />
        </mxCell>
        <mxCell id="GKoCl5mRJuVTZbslMC3Y-92" value="&lt;font style=&quot;font-size: 15px;&quot;&gt;&lt;font style=&quot;font-size: 15px;&quot; face=&quot;Times New Roman&quot;&gt;&lt;i style=&quot;&quot;&gt;Γ&lt;/i&gt;&lt;/font&gt;&lt;sub style=&quot;&quot;&gt;1,r&lt;/sub&gt;&lt;/font&gt;&lt;span style=&quot;box-sizing: border-box; color: transparent; cursor: text; position: absolute; transform-origin: 0px 0px; text-align: start; background-color: rgb(255, 255, 255); left: 298.863px; top: 208.914px; font-family: sans-serif; font-size: 15px;&quot; dir=&quot;ltr&quot; role=&quot;presentation&quot;&gt;&lt;font style=&quot;font-size: 15px;&quot;&gt;2&lt;/font&gt;&lt;/span&gt;&lt;span style=&quot;box-sizing: border-box; color: transparent; cursor: text; position: absolute; transform-origin: 0px 0px; text-align: start; background-color: rgb(255, 255, 255); left: 298.863px; top: 208.914px; font-family: sans-serif; font-size: 15px;&quot; dir=&quot;ltr&quot; role=&quot;presentation&quot;&gt;&lt;font style=&quot;font-size: 15px;&quot;&gt;&lt;br&gt;&lt;/font&gt;&lt;/span&gt;&lt;span style=&quot;box-sizing: border-box; color: transparent; cursor: text; position: absolute; transform-origin: 0px 0px; text-align: start; background-color: rgb(255, 255, 255); left: 298.863px; top: 208.914px; font-family: sans-serif; font-size: 15px;&quot; dir=&quot;ltr&quot; role=&quot;presentation&quot;&gt;&lt;font style=&quot;font-size: 15px;&quot;&gt;2&lt;/font&gt;&lt;/span&gt;" style="text;html=1;strokeColor=none;fillColor=none;align=center;verticalAlign=middle;whiteSpace=wrap;rounded=0;" vertex="1" parent="GKoCl5mRJuVTZbslMC3Y-18">
          <mxGeometry x="120" y="54" width="200" height="50" as="geometry" />
        </mxCell>
        <mxCell id="GKoCl5mRJuVTZbslMC3Y-97" value="&lt;font style=&quot;font-size: 15px;&quot;&gt;&lt;i&gt;&lt;font style=&quot;font-size: 15px;&quot; face=&quot;Times New Roman&quot;&gt;Γ&lt;/font&gt;&lt;/i&gt;&lt;sub&gt;2&lt;br&gt;&lt;/sub&gt;&lt;/font&gt;" style="text;html=1;strokeColor=none;fillColor=none;align=center;verticalAlign=middle;whiteSpace=wrap;rounded=0;" vertex="1" parent="GKoCl5mRJuVTZbslMC3Y-18">
          <mxGeometry x="-51" y="47.379999999999995" width="200" height="50" as="geometry" />
        </mxCell>
        <mxCell id="GKoCl5mRJuVTZbslMC3Y-23" value="" style="group" vertex="1" connectable="0" parent="1">
          <mxGeometry x="370" y="400" width="330" height="107.02999999999997" as="geometry" />
        </mxCell>
        <mxCell id="GKoCl5mRJuVTZbslMC3Y-24" value="" style="triangle;whiteSpace=wrap;html=1;rotation=-90;" vertex="1" parent="GKoCl5mRJuVTZbslMC3Y-23">
          <mxGeometry x="27.350000000000023" y="14.379999999999995" width="65.3" height="120" as="geometry" />
        </mxCell>
        <mxCell id="GKoCl5mRJuVTZbslMC3Y-25" value="" style="triangle;whiteSpace=wrap;html=1;rotation=-90;" vertex="1" parent="GKoCl5mRJuVTZbslMC3Y-23">
          <mxGeometry x="181.72000000000003" y="14.379999999999995" width="65.3" height="120" as="geometry" />
        </mxCell>
        <mxCell id="GKoCl5mRJuVTZbslMC3Y-26" value="" style="endArrow=none;html=1;rounded=0;" edge="1" parent="GKoCl5mRJuVTZbslMC3Y-23">
          <mxGeometry width="50" height="50" relative="1" as="geometry">
            <mxPoint x="61.72000000000003" y="40" as="sourcePoint" />
            <mxPoint x="141.72000000000003" as="targetPoint" />
          </mxGeometry>
        </mxCell>
        <mxCell id="GKoCl5mRJuVTZbslMC3Y-27" value="" style="endArrow=none;html=1;rounded=0;entryX=1;entryY=0.5;entryDx=0;entryDy=0;" edge="1" parent="GKoCl5mRJuVTZbslMC3Y-23" target="GKoCl5mRJuVTZbslMC3Y-25">
          <mxGeometry width="50" height="50" relative="1" as="geometry">
            <mxPoint x="141.72000000000003" as="sourcePoint" />
            <mxPoint x="161.72000000000003" y="10" as="targetPoint" />
          </mxGeometry>
        </mxCell>
        <mxCell id="GKoCl5mRJuVTZbslMC3Y-55" value="" style="group" vertex="1" connectable="0" parent="GKoCl5mRJuVTZbslMC3Y-23">
          <mxGeometry x="170" y="81" width="50" height="20" as="geometry" />
        </mxCell>
        <mxCell id="GKoCl5mRJuVTZbslMC3Y-56" value="" style="triangle;whiteSpace=wrap;html=1;rotation=-90;fillColor=#FFFFFF;container=0;" vertex="1" parent="GKoCl5mRJuVTZbslMC3Y-55">
          <mxGeometry x="5" y="5" width="10" height="20" as="geometry" />
        </mxCell>
        <mxCell id="GKoCl5mRJuVTZbslMC3Y-57" value="" style="triangle;whiteSpace=wrap;html=1;rotation=-90;fillColor=#FFFFFF;container=0;" vertex="1" parent="GKoCl5mRJuVTZbslMC3Y-55">
          <mxGeometry x="35" y="5" width="10" height="20" as="geometry" />
        </mxCell>
        <mxCell id="GKoCl5mRJuVTZbslMC3Y-58" value="" style="endArrow=none;html=1;rounded=0;exitX=1;exitY=0.5;exitDx=0;exitDy=0;" edge="1" parent="GKoCl5mRJuVTZbslMC3Y-55" source="GKoCl5mRJuVTZbslMC3Y-56">
          <mxGeometry width="50" height="50" relative="1" as="geometry">
            <mxPoint x="17.5" as="sourcePoint" />
            <mxPoint x="25" as="targetPoint" />
          </mxGeometry>
        </mxCell>
        <mxCell id="GKoCl5mRJuVTZbslMC3Y-59" value="" style="endArrow=none;html=1;rounded=0;entryX=1;entryY=0.5;entryDx=0;entryDy=0;" edge="1" parent="GKoCl5mRJuVTZbslMC3Y-55" target="GKoCl5mRJuVTZbslMC3Y-57">
          <mxGeometry width="50" height="50" relative="1" as="geometry">
            <mxPoint x="25" as="sourcePoint" />
            <mxPoint x="27.5" y="2.5" as="targetPoint" />
          </mxGeometry>
        </mxCell>
        <mxCell id="GKoCl5mRJuVTZbslMC3Y-75" value="" style="triangle;whiteSpace=wrap;html=1;rotation=-90;fillColor=#333333;container=0;" vertex="1" parent="GKoCl5mRJuVTZbslMC3Y-23">
          <mxGeometry x="233.01999999999998" y="87.02999999999997" width="10" height="20" as="geometry" />
        </mxCell>
        <mxCell id="GKoCl5mRJuVTZbslMC3Y-71" value="" style="triangle;whiteSpace=wrap;html=1;rotation=-90;fillColor=#333333;container=0;" vertex="1" parent="GKoCl5mRJuVTZbslMC3Y-23">
          <mxGeometry x="50" y="87.02999999999997" width="10" height="20" as="geometry" />
        </mxCell>
        <mxCell id="GKoCl5mRJuVTZbslMC3Y-93" value="&lt;font style=&quot;font-size: 15px;&quot;&gt;&lt;i style=&quot;&quot;&gt;&lt;font style=&quot;font-size: 15px;&quot; face=&quot;Times New Roman&quot;&gt;Γ&lt;/font&gt;&lt;/i&gt;&lt;sub style=&quot;&quot;&gt;1,l&lt;/sub&gt;&lt;/font&gt;&lt;span style=&quot;box-sizing: border-box; color: transparent; cursor: text; position: absolute; transform-origin: 0px 0px; text-align: start; background-color: rgb(255, 255, 255); left: 298.863px; top: 208.914px; font-family: sans-serif; font-size: 15px;&quot; dir=&quot;ltr&quot; role=&quot;presentation&quot;&gt;&lt;font style=&quot;font-size: 15px;&quot;&gt;2&lt;/font&gt;&lt;/span&gt;&lt;span style=&quot;box-sizing: border-box; color: transparent; cursor: text; position: absolute; transform-origin: 0px 0px; text-align: start; background-color: rgb(255, 255, 255); left: 298.863px; top: 208.914px; font-family: sans-serif; font-size: 15px;&quot; dir=&quot;ltr&quot; role=&quot;presentation&quot;&gt;&lt;font style=&quot;font-size: 15px;&quot;&gt;&lt;br&gt;&lt;/font&gt;&lt;/span&gt;&lt;span style=&quot;box-sizing: border-box; color: transparent; cursor: text; position: absolute; transform-origin: 0px 0px; text-align: start; background-color: rgb(255, 255, 255); left: 298.863px; top: 208.914px; font-family: sans-serif; font-size: 15px;&quot; dir=&quot;ltr&quot; role=&quot;presentation&quot;&gt;&lt;font style=&quot;font-size: 15px;&quot;&gt;2&lt;/font&gt;&lt;/span&gt;" style="text;html=1;strokeColor=none;fillColor=none;align=center;verticalAlign=middle;whiteSpace=wrap;rounded=0;" vertex="1" parent="GKoCl5mRJuVTZbslMC3Y-23">
          <mxGeometry x="-45" y="51" width="200" height="50" as="geometry" />
        </mxCell>
        <mxCell id="GKoCl5mRJuVTZbslMC3Y-95" value="&lt;font style=&quot;font-size: 15px;&quot;&gt;&lt;font style=&quot;font-size: 15px;&quot; face=&quot;Times New Roman&quot;&gt;&lt;i style=&quot;&quot;&gt;Γ&lt;/i&gt;&lt;/font&gt;&lt;sub style=&quot;&quot;&gt;1,r&lt;/sub&gt;&lt;/font&gt;&lt;span style=&quot;box-sizing: border-box; color: transparent; cursor: text; position: absolute; transform-origin: 0px 0px; text-align: start; background-color: rgb(255, 255, 255); left: 298.863px; top: 208.914px; font-family: sans-serif; font-size: 15px;&quot; dir=&quot;ltr&quot; role=&quot;presentation&quot;&gt;&lt;font style=&quot;font-size: 15px;&quot;&gt;2&lt;/font&gt;&lt;/span&gt;&lt;span style=&quot;box-sizing: border-box; color: transparent; cursor: text; position: absolute; transform-origin: 0px 0px; text-align: start; background-color: rgb(255, 255, 255); left: 298.863px; top: 208.914px; font-family: sans-serif; font-size: 15px;&quot; dir=&quot;ltr&quot; role=&quot;presentation&quot;&gt;&lt;font style=&quot;font-size: 15px;&quot;&gt;&lt;br&gt;&lt;/font&gt;&lt;/span&gt;&lt;span style=&quot;box-sizing: border-box; color: transparent; cursor: text; position: absolute; transform-origin: 0px 0px; text-align: start; background-color: rgb(255, 255, 255); left: 298.863px; top: 208.914px; font-family: sans-serif; font-size: 15px;&quot; dir=&quot;ltr&quot; role=&quot;presentation&quot;&gt;&lt;font style=&quot;font-size: 15px;&quot;&gt;2&lt;/font&gt;&lt;/span&gt;" style="text;html=1;strokeColor=none;fillColor=none;align=center;verticalAlign=middle;whiteSpace=wrap;rounded=0;" vertex="1" parent="GKoCl5mRJuVTZbslMC3Y-23">
          <mxGeometry x="130" y="51" width="200" height="50" as="geometry" />
        </mxCell>
        <mxCell id="GKoCl5mRJuVTZbslMC3Y-98" value="&lt;font style=&quot;font-size: 15px;&quot;&gt;&lt;i&gt;&lt;font style=&quot;font-size: 15px;&quot; face=&quot;Times New Roman&quot;&gt;Γ&lt;/font&gt;&lt;/i&gt;&lt;sub&gt;2&lt;br&gt;&lt;/sub&gt;&lt;/font&gt;" style="text;html=1;strokeColor=none;fillColor=none;align=center;verticalAlign=middle;whiteSpace=wrap;rounded=0;" vertex="1" parent="GKoCl5mRJuVTZbslMC3Y-23">
          <mxGeometry x="104" y="48.379999999999995" width="200" height="50" as="geometry" />
        </mxCell>
        <mxCell id="GKoCl5mRJuVTZbslMC3Y-28" value="" style="group" vertex="1" connectable="0" parent="1">
          <mxGeometry x="640" y="170" width="330" height="107.02999999999997" as="geometry" />
        </mxCell>
        <mxCell id="GKoCl5mRJuVTZbslMC3Y-29" value="" style="triangle;whiteSpace=wrap;html=1;rotation=-90;" vertex="1" parent="GKoCl5mRJuVTZbslMC3Y-28">
          <mxGeometry x="27.350000000000023" y="14.379999999999995" width="65.3" height="120" as="geometry" />
        </mxCell>
        <mxCell id="GKoCl5mRJuVTZbslMC3Y-30" value="" style="triangle;whiteSpace=wrap;html=1;rotation=-90;" vertex="1" parent="GKoCl5mRJuVTZbslMC3Y-28">
          <mxGeometry x="181.72000000000003" y="14.379999999999995" width="65.3" height="120" as="geometry" />
        </mxCell>
        <mxCell id="GKoCl5mRJuVTZbslMC3Y-31" value="" style="endArrow=none;html=1;rounded=0;" edge="1" parent="GKoCl5mRJuVTZbslMC3Y-28">
          <mxGeometry width="50" height="50" relative="1" as="geometry">
            <mxPoint x="61.72000000000003" y="40" as="sourcePoint" />
            <mxPoint x="141.72000000000003" as="targetPoint" />
          </mxGeometry>
        </mxCell>
        <mxCell id="GKoCl5mRJuVTZbslMC3Y-32" value="" style="endArrow=none;html=1;rounded=0;entryX=1;entryY=0.5;entryDx=0;entryDy=0;" edge="1" parent="GKoCl5mRJuVTZbslMC3Y-28" target="GKoCl5mRJuVTZbslMC3Y-30">
          <mxGeometry width="50" height="50" relative="1" as="geometry">
            <mxPoint x="141.72000000000003" as="sourcePoint" />
            <mxPoint x="161.72000000000003" y="10" as="targetPoint" />
          </mxGeometry>
        </mxCell>
        <mxCell id="GKoCl5mRJuVTZbslMC3Y-65" value="" style="group" vertex="1" connectable="0" parent="GKoCl5mRJuVTZbslMC3Y-28">
          <mxGeometry x="170" y="80" width="50" height="20" as="geometry" />
        </mxCell>
        <mxCell id="GKoCl5mRJuVTZbslMC3Y-66" value="" style="triangle;whiteSpace=wrap;html=1;rotation=-90;fillColor=#333333;container=0;" vertex="1" parent="GKoCl5mRJuVTZbslMC3Y-65">
          <mxGeometry x="5" y="5" width="10" height="20" as="geometry" />
        </mxCell>
        <mxCell id="GKoCl5mRJuVTZbslMC3Y-67" value="" style="triangle;whiteSpace=wrap;html=1;rotation=-90;fillColor=#333333;container=0;" vertex="1" parent="GKoCl5mRJuVTZbslMC3Y-65">
          <mxGeometry x="35" y="5" width="10" height="20" as="geometry" />
        </mxCell>
        <mxCell id="GKoCl5mRJuVTZbslMC3Y-68" value="" style="endArrow=none;html=1;rounded=0;exitX=1;exitY=0.5;exitDx=0;exitDy=0;" edge="1" parent="GKoCl5mRJuVTZbslMC3Y-65" source="GKoCl5mRJuVTZbslMC3Y-66">
          <mxGeometry width="50" height="50" relative="1" as="geometry">
            <mxPoint x="17.5" as="sourcePoint" />
            <mxPoint x="25" as="targetPoint" />
          </mxGeometry>
        </mxCell>
        <mxCell id="GKoCl5mRJuVTZbslMC3Y-69" value="" style="endArrow=none;html=1;rounded=0;entryX=1;entryY=0.5;entryDx=0;entryDy=0;" edge="1" parent="GKoCl5mRJuVTZbslMC3Y-65" target="GKoCl5mRJuVTZbslMC3Y-67">
          <mxGeometry width="50" height="50" relative="1" as="geometry">
            <mxPoint x="25" as="sourcePoint" />
            <mxPoint x="27.5" y="2.5" as="targetPoint" />
          </mxGeometry>
        </mxCell>
        <mxCell id="GKoCl5mRJuVTZbslMC3Y-80" value="" style="triangle;whiteSpace=wrap;html=1;rotation=-90;fillColor=#FFFFFF;container=0;" vertex="1" parent="GKoCl5mRJuVTZbslMC3Y-28">
          <mxGeometry x="55" y="87.02999999999997" width="10" height="20" as="geometry" />
        </mxCell>
        <mxCell id="GKoCl5mRJuVTZbslMC3Y-81" value="" style="triangle;whiteSpace=wrap;html=1;rotation=-90;fillColor=#FFFFFF;container=0;" vertex="1" parent="GKoCl5mRJuVTZbslMC3Y-28">
          <mxGeometry x="236" y="85" width="10" height="20" as="geometry" />
        </mxCell>
        <mxCell id="GKoCl5mRJuVTZbslMC3Y-99" value="&lt;font style=&quot;font-size: 15px;&quot;&gt;&lt;i style=&quot;&quot;&gt;&lt;font style=&quot;font-size: 15px;&quot; face=&quot;Times New Roman&quot;&gt;Γ&lt;/font&gt;&lt;/i&gt;&lt;sub style=&quot;&quot;&gt;1&lt;/sub&gt;&lt;/font&gt;&lt;span style=&quot;box-sizing: border-box; color: transparent; cursor: text; position: absolute; transform-origin: 0px 0px; text-align: start; background-color: rgb(255, 255, 255); left: 298.863px; top: 208.914px; font-family: sans-serif; font-size: 15px;&quot; dir=&quot;ltr&quot; role=&quot;presentation&quot;&gt;&lt;font style=&quot;font-size: 15px;&quot;&gt;2&lt;/font&gt;&lt;/span&gt;&lt;span style=&quot;box-sizing: border-box; color: transparent; cursor: text; position: absolute; transform-origin: 0px 0px; text-align: start; background-color: rgb(255, 255, 255); left: 298.863px; top: 208.914px; font-family: sans-serif; font-size: 15px;&quot; dir=&quot;ltr&quot; role=&quot;presentation&quot;&gt;&lt;font style=&quot;font-size: 15px;&quot;&gt;&lt;br&gt;&lt;/font&gt;&lt;/span&gt;&lt;span style=&quot;box-sizing: border-box; color: transparent; cursor: text; position: absolute; transform-origin: 0px 0px; text-align: start; background-color: rgb(255, 255, 255); left: 298.863px; top: 208.914px; font-family: sans-serif; font-size: 15px;&quot; dir=&quot;ltr&quot; role=&quot;presentation&quot;&gt;&lt;font style=&quot;font-size: 15px;&quot;&gt;2&lt;/font&gt;&lt;/span&gt;" style="text;html=1;strokeColor=none;fillColor=none;align=center;verticalAlign=middle;whiteSpace=wrap;rounded=0;" vertex="1" parent="GKoCl5mRJuVTZbslMC3Y-28">
          <mxGeometry x="105" y="47.379999999999995" width="200" height="50" as="geometry" />
        </mxCell>
        <mxCell id="GKoCl5mRJuVTZbslMC3Y-103" value="&lt;font style=&quot;font-size: 15px;&quot;&gt;&lt;i style=&quot;&quot;&gt;&lt;font style=&quot;font-size: 15px;&quot; face=&quot;Times New Roman&quot;&gt;Γ&lt;/font&gt;&lt;/i&gt;&lt;sub style=&quot;&quot;&gt;2,l&lt;/sub&gt;&lt;/font&gt;&lt;span style=&quot;box-sizing: border-box; color: transparent; cursor: text; position: absolute; transform-origin: 0px 0px; text-align: start; background-color: rgb(255, 255, 255); left: 298.863px; top: 208.914px; font-family: sans-serif; font-size: 15px;&quot; dir=&quot;ltr&quot; role=&quot;presentation&quot;&gt;&lt;font style=&quot;font-size: 15px;&quot;&gt;2&lt;/font&gt;&lt;/span&gt;&lt;span style=&quot;box-sizing: border-box; color: transparent; cursor: text; position: absolute; transform-origin: 0px 0px; text-align: start; background-color: rgb(255, 255, 255); left: 298.863px; top: 208.914px; font-family: sans-serif; font-size: 15px;&quot; dir=&quot;ltr&quot; role=&quot;presentation&quot;&gt;&lt;font style=&quot;font-size: 15px;&quot;&gt;&lt;br&gt;&lt;/font&gt;&lt;/span&gt;&lt;span style=&quot;box-sizing: border-box; color: transparent; cursor: text; position: absolute; transform-origin: 0px 0px; text-align: start; background-color: rgb(255, 255, 255); left: 298.863px; top: 208.914px; font-family: sans-serif; font-size: 15px;&quot; dir=&quot;ltr&quot; role=&quot;presentation&quot;&gt;&lt;font style=&quot;font-size: 15px;&quot;&gt;2&lt;/font&gt;&lt;/span&gt;" style="text;html=1;strokeColor=none;fillColor=none;align=center;verticalAlign=middle;whiteSpace=wrap;rounded=0;" vertex="1" parent="GKoCl5mRJuVTZbslMC3Y-28">
          <mxGeometry x="-20" y="54.99999999999997" width="160" height="50" as="geometry" />
        </mxCell>
        <mxCell id="GKoCl5mRJuVTZbslMC3Y-104" value="&lt;font style=&quot;font-size: 15px;&quot;&gt;&lt;font style=&quot;font-size: 15px;&quot; face=&quot;Times New Roman&quot;&gt;&lt;i style=&quot;&quot;&gt;Γ&lt;/i&gt;&lt;/font&gt;&lt;sub style=&quot;&quot;&gt;2,r&lt;/sub&gt;&lt;/font&gt;&lt;span style=&quot;box-sizing: border-box; color: transparent; cursor: text; position: absolute; transform-origin: 0px 0px; text-align: start; background-color: rgb(255, 255, 255); left: 298.863px; top: 208.914px; font-family: sans-serif; font-size: 15px;&quot; dir=&quot;ltr&quot; role=&quot;presentation&quot;&gt;&lt;font style=&quot;font-size: 15px;&quot;&gt;2&lt;/font&gt;&lt;/span&gt;&lt;span style=&quot;box-sizing: border-box; color: transparent; cursor: text; position: absolute; transform-origin: 0px 0px; text-align: start; background-color: rgb(255, 255, 255); left: 298.863px; top: 208.914px; font-family: sans-serif; font-size: 15px;&quot; dir=&quot;ltr&quot; role=&quot;presentation&quot;&gt;&lt;font style=&quot;font-size: 15px;&quot;&gt;&lt;br&gt;&lt;/font&gt;&lt;/span&gt;&lt;span style=&quot;box-sizing: border-box; color: transparent; cursor: text; position: absolute; transform-origin: 0px 0px; text-align: start; background-color: rgb(255, 255, 255); left: 298.863px; top: 208.914px; font-family: sans-serif; font-size: 15px;&quot; dir=&quot;ltr&quot; role=&quot;presentation&quot;&gt;&lt;font style=&quot;font-size: 15px;&quot;&gt;2&lt;/font&gt;&lt;/span&gt;" style="text;html=1;strokeColor=none;fillColor=none;align=center;verticalAlign=middle;whiteSpace=wrap;rounded=0;" vertex="1" parent="GKoCl5mRJuVTZbslMC3Y-28">
          <mxGeometry x="132" y="53" width="200" height="50" as="geometry" />
        </mxCell>
        <mxCell id="GKoCl5mRJuVTZbslMC3Y-33" value="" style="group" vertex="1" connectable="0" parent="1">
          <mxGeometry x="640" y="340" width="316.37" height="107.02999999999997" as="geometry" />
        </mxCell>
        <mxCell id="GKoCl5mRJuVTZbslMC3Y-34" value="" style="triangle;whiteSpace=wrap;html=1;rotation=-90;" vertex="1" parent="GKoCl5mRJuVTZbslMC3Y-33">
          <mxGeometry x="27.350000000000023" y="14.379999999999995" width="65.3" height="120" as="geometry" />
        </mxCell>
        <mxCell id="GKoCl5mRJuVTZbslMC3Y-35" value="" style="triangle;whiteSpace=wrap;html=1;rotation=-90;" vertex="1" parent="GKoCl5mRJuVTZbslMC3Y-33">
          <mxGeometry x="181.72000000000003" y="14.379999999999995" width="65.3" height="120" as="geometry" />
        </mxCell>
        <mxCell id="GKoCl5mRJuVTZbslMC3Y-36" value="" style="endArrow=none;html=1;rounded=0;" edge="1" parent="GKoCl5mRJuVTZbslMC3Y-33">
          <mxGeometry width="50" height="50" relative="1" as="geometry">
            <mxPoint x="61.72000000000003" y="40" as="sourcePoint" />
            <mxPoint x="141.72000000000003" as="targetPoint" />
          </mxGeometry>
        </mxCell>
        <mxCell id="GKoCl5mRJuVTZbslMC3Y-37" value="" style="endArrow=none;html=1;rounded=0;entryX=1;entryY=0.5;entryDx=0;entryDy=0;" edge="1" parent="GKoCl5mRJuVTZbslMC3Y-33" target="GKoCl5mRJuVTZbslMC3Y-35">
          <mxGeometry width="50" height="50" relative="1" as="geometry">
            <mxPoint x="141.72000000000003" as="sourcePoint" />
            <mxPoint x="161.72000000000003" y="10" as="targetPoint" />
          </mxGeometry>
        </mxCell>
        <mxCell id="GKoCl5mRJuVTZbslMC3Y-60" value="" style="group" vertex="1" connectable="0" parent="GKoCl5mRJuVTZbslMC3Y-33">
          <mxGeometry x="20" y="80" width="50" height="20" as="geometry" />
        </mxCell>
        <mxCell id="GKoCl5mRJuVTZbslMC3Y-61" value="" style="triangle;whiteSpace=wrap;html=1;rotation=-90;fillColor=#333333;container=0;" vertex="1" parent="GKoCl5mRJuVTZbslMC3Y-60">
          <mxGeometry x="5" y="5" width="10" height="20" as="geometry" />
        </mxCell>
        <mxCell id="GKoCl5mRJuVTZbslMC3Y-62" value="" style="triangle;whiteSpace=wrap;html=1;rotation=-90;fillColor=#333333;container=0;" vertex="1" parent="GKoCl5mRJuVTZbslMC3Y-60">
          <mxGeometry x="35" y="5" width="10" height="20" as="geometry" />
        </mxCell>
        <mxCell id="GKoCl5mRJuVTZbslMC3Y-63" value="" style="endArrow=none;html=1;rounded=0;exitX=1;exitY=0.5;exitDx=0;exitDy=0;" edge="1" parent="GKoCl5mRJuVTZbslMC3Y-60" source="GKoCl5mRJuVTZbslMC3Y-61">
          <mxGeometry width="50" height="50" relative="1" as="geometry">
            <mxPoint x="17.5" as="sourcePoint" />
            <mxPoint x="25" as="targetPoint" />
          </mxGeometry>
        </mxCell>
        <mxCell id="GKoCl5mRJuVTZbslMC3Y-64" value="" style="endArrow=none;html=1;rounded=0;entryX=1;entryY=0.5;entryDx=0;entryDy=0;" edge="1" parent="GKoCl5mRJuVTZbslMC3Y-60" target="GKoCl5mRJuVTZbslMC3Y-62">
          <mxGeometry width="50" height="50" relative="1" as="geometry">
            <mxPoint x="25" as="sourcePoint" />
            <mxPoint x="27.5" y="2.5" as="targetPoint" />
          </mxGeometry>
        </mxCell>
        <mxCell id="GKoCl5mRJuVTZbslMC3Y-76" value="" style="triangle;whiteSpace=wrap;html=1;rotation=-90;fillColor=#FFFFFF;container=0;" vertex="1" parent="GKoCl5mRJuVTZbslMC3Y-33">
          <mxGeometry x="82.64999999999998" y="85.02999999999997" width="10" height="20" as="geometry" />
        </mxCell>
        <mxCell id="GKoCl5mRJuVTZbslMC3Y-77" value="" style="triangle;whiteSpace=wrap;html=1;rotation=-90;fillColor=#FFFFFF;container=0;" vertex="1" parent="GKoCl5mRJuVTZbslMC3Y-33">
          <mxGeometry x="211.37" y="85" width="10" height="20" as="geometry" />
        </mxCell>
        <mxCell id="GKoCl5mRJuVTZbslMC3Y-100" value="&lt;font style=&quot;font-size: 15px;&quot;&gt;&lt;i style=&quot;&quot;&gt;&lt;font style=&quot;font-size: 15px;&quot; face=&quot;Times New Roman&quot;&gt;Γ&lt;/font&gt;&lt;/i&gt;&lt;sub style=&quot;&quot;&gt;1&lt;/sub&gt;&lt;/font&gt;&lt;span style=&quot;box-sizing: border-box; color: transparent; cursor: text; position: absolute; transform-origin: 0px 0px; text-align: start; background-color: rgb(255, 255, 255); left: 298.863px; top: 208.914px; font-family: sans-serif; font-size: 15px;&quot; dir=&quot;ltr&quot; role=&quot;presentation&quot;&gt;&lt;font style=&quot;font-size: 15px;&quot;&gt;2&lt;/font&gt;&lt;/span&gt;&lt;span style=&quot;box-sizing: border-box; color: transparent; cursor: text; position: absolute; transform-origin: 0px 0px; text-align: start; background-color: rgb(255, 255, 255); left: 298.863px; top: 208.914px; font-family: sans-serif; font-size: 15px;&quot; dir=&quot;ltr&quot; role=&quot;presentation&quot;&gt;&lt;font style=&quot;font-size: 15px;&quot;&gt;&lt;br&gt;&lt;/font&gt;&lt;/span&gt;&lt;span style=&quot;box-sizing: border-box; color: transparent; cursor: text; position: absolute; transform-origin: 0px 0px; text-align: start; background-color: rgb(255, 255, 255); left: 298.863px; top: 208.914px; font-family: sans-serif; font-size: 15px;&quot; dir=&quot;ltr&quot; role=&quot;presentation&quot;&gt;&lt;font style=&quot;font-size: 15px;&quot;&gt;2&lt;/font&gt;&lt;/span&gt;" style="text;html=1;strokeColor=none;fillColor=none;align=center;verticalAlign=middle;whiteSpace=wrap;rounded=0;" vertex="1" parent="GKoCl5mRJuVTZbslMC3Y-33">
          <mxGeometry x="-49" y="45" width="200" height="50" as="geometry" />
        </mxCell>
        <mxCell id="GKoCl5mRJuVTZbslMC3Y-101" value="&lt;font style=&quot;font-size: 15px;&quot;&gt;&lt;i style=&quot;&quot;&gt;&lt;font style=&quot;font-size: 15px;&quot; face=&quot;Times New Roman&quot;&gt;Γ&lt;/font&gt;&lt;/i&gt;&lt;sub style=&quot;&quot;&gt;2,l&lt;/sub&gt;&lt;/font&gt;&lt;span style=&quot;box-sizing: border-box; color: transparent; cursor: text; position: absolute; transform-origin: 0px 0px; text-align: start; background-color: rgb(255, 255, 255); left: 298.863px; top: 208.914px; font-family: sans-serif; font-size: 15px;&quot; dir=&quot;ltr&quot; role=&quot;presentation&quot;&gt;&lt;font style=&quot;font-size: 15px;&quot;&gt;2&lt;/font&gt;&lt;/span&gt;&lt;span style=&quot;box-sizing: border-box; color: transparent; cursor: text; position: absolute; transform-origin: 0px 0px; text-align: start; background-color: rgb(255, 255, 255); left: 298.863px; top: 208.914px; font-family: sans-serif; font-size: 15px;&quot; dir=&quot;ltr&quot; role=&quot;presentation&quot;&gt;&lt;font style=&quot;font-size: 15px;&quot;&gt;&lt;br&gt;&lt;/font&gt;&lt;/span&gt;&lt;span style=&quot;box-sizing: border-box; color: transparent; cursor: text; position: absolute; transform-origin: 0px 0px; text-align: start; background-color: rgb(255, 255, 255); left: 298.863px; top: 208.914px; font-family: sans-serif; font-size: 15px;&quot; dir=&quot;ltr&quot; role=&quot;presentation&quot;&gt;&lt;font style=&quot;font-size: 15px;&quot;&gt;2&lt;/font&gt;&lt;/span&gt;" style="text;html=1;strokeColor=none;fillColor=none;align=center;verticalAlign=middle;whiteSpace=wrap;rounded=0;" vertex="1" parent="GKoCl5mRJuVTZbslMC3Y-33">
          <mxGeometry y="55.03" width="160" height="50" as="geometry" />
        </mxCell>
        <mxCell id="GKoCl5mRJuVTZbslMC3Y-102" value="&lt;font style=&quot;font-size: 15px;&quot;&gt;&lt;font style=&quot;font-size: 15px;&quot; face=&quot;Times New Roman&quot;&gt;&lt;i style=&quot;&quot;&gt;Γ&lt;/i&gt;&lt;/font&gt;&lt;sub style=&quot;&quot;&gt;2,r&lt;/sub&gt;&lt;/font&gt;&lt;span style=&quot;box-sizing: border-box; color: transparent; cursor: text; position: absolute; transform-origin: 0px 0px; text-align: start; background-color: rgb(255, 255, 255); left: 298.863px; top: 208.914px; font-family: sans-serif; font-size: 15px;&quot; dir=&quot;ltr&quot; role=&quot;presentation&quot;&gt;&lt;font style=&quot;font-size: 15px;&quot;&gt;2&lt;/font&gt;&lt;/span&gt;&lt;span style=&quot;box-sizing: border-box; color: transparent; cursor: text; position: absolute; transform-origin: 0px 0px; text-align: start; background-color: rgb(255, 255, 255); left: 298.863px; top: 208.914px; font-family: sans-serif; font-size: 15px;&quot; dir=&quot;ltr&quot; role=&quot;presentation&quot;&gt;&lt;font style=&quot;font-size: 15px;&quot;&gt;&lt;br&gt;&lt;/font&gt;&lt;/span&gt;&lt;span style=&quot;box-sizing: border-box; color: transparent; cursor: text; position: absolute; transform-origin: 0px 0px; text-align: start; background-color: rgb(255, 255, 255); left: 298.863px; top: 208.914px; font-family: sans-serif; font-size: 15px;&quot; dir=&quot;ltr&quot; role=&quot;presentation&quot;&gt;&lt;font style=&quot;font-size: 15px;&quot;&gt;2&lt;/font&gt;&lt;/span&gt;" style="text;html=1;strokeColor=none;fillColor=none;align=center;verticalAlign=middle;whiteSpace=wrap;rounded=0;" vertex="1" parent="GKoCl5mRJuVTZbslMC3Y-33">
          <mxGeometry x="116.37" y="50" width="200" height="50" as="geometry" />
        </mxCell>
        <mxCell id="GKoCl5mRJuVTZbslMC3Y-82" value="&lt;font style=&quot;font-size: 21px;&quot;&gt;&lt;font face=&quot;Times New Roman&quot;&gt;&lt;i&gt; Γ&lt;/i&gt;&lt;/font&gt;= {&amp;nbsp;&lt;i&gt;&lt;font face=&quot;Times New Roman&quot;&gt;Γ&lt;/font&gt;&lt;/i&gt;&lt;sub&gt;1&lt;/sub&gt;, &lt;font face=&quot;Times New Roman&quot;&gt;&lt;i&gt;Γ&lt;/i&gt;&lt;/font&gt;&lt;sub&gt;2&lt;/sub&gt; }&lt;/font&gt;&lt;span style=&quot;box-sizing: border-box; color: transparent; cursor: text; position: absolute; transform-origin: 0px 0px; text-align: start; background-color: rgb(255, 255, 255); left: 298.863px; top: 208.914px; font-family: sans-serif; font-size: 21px;&quot; dir=&quot;ltr&quot; role=&quot;presentation&quot;&gt;&lt;font style=&quot;font-size: 21px;&quot;&gt;2&lt;/font&gt;&lt;/span&gt;&lt;span style=&quot;box-sizing: border-box; color: transparent; cursor: text; position: absolute; transform-origin: 0px 0px; text-align: start; background-color: rgb(255, 255, 255); left: 298.863px; top: 208.914px; font-family: sans-serif; font-size: 21px;&quot; dir=&quot;ltr&quot; role=&quot;presentation&quot;&gt;&lt;font style=&quot;font-size: 21px;&quot;&gt;&lt;br&gt;&lt;/font&gt;&lt;/span&gt;&lt;span style=&quot;box-sizing: border-box; color: transparent; cursor: text; position: absolute; transform-origin: 0px 0px; text-align: start; background-color: rgb(255, 255, 255); left: 298.863px; top: 208.914px; font-family: sans-serif; font-size: 21px;&quot; dir=&quot;ltr&quot; role=&quot;presentation&quot;&gt;&lt;font style=&quot;font-size: 21px;&quot;&gt;2&lt;/font&gt;&lt;/span&gt;" style="text;html=1;strokeColor=none;fillColor=none;align=center;verticalAlign=middle;whiteSpace=wrap;rounded=0;" vertex="1" parent="1">
          <mxGeometry x="90" y="40" width="200" height="50" as="geometry" />
        </mxCell>
        <mxCell id="GKoCl5mRJuVTZbslMC3Y-83" value="&lt;font style=&quot;font-size: 19px;&quot;&gt;&lt;i style=&quot;&quot;&gt;&lt;font style=&quot;font-size: 19px;&quot; face=&quot;Times New Roman&quot;&gt;Γ&lt;/font&gt;&lt;/i&gt;&lt;sub style=&quot;&quot;&gt;1,l&lt;/sub&gt;&lt;/font&gt;&lt;span style=&quot;box-sizing: border-box; color: transparent; cursor: text; position: absolute; transform-origin: 0px 0px; text-align: start; background-color: rgb(255, 255, 255); left: 298.863px; top: 208.914px; font-family: sans-serif; font-size: 19px;&quot; dir=&quot;ltr&quot; role=&quot;presentation&quot;&gt;&lt;font style=&quot;font-size: 19px;&quot;&gt;2&lt;/font&gt;&lt;/span&gt;&lt;span style=&quot;box-sizing: border-box; color: transparent; cursor: text; position: absolute; transform-origin: 0px 0px; text-align: start; background-color: rgb(255, 255, 255); left: 298.863px; top: 208.914px; font-family: sans-serif; font-size: 19px;&quot; dir=&quot;ltr&quot; role=&quot;presentation&quot;&gt;&lt;font style=&quot;font-size: 19px;&quot;&gt;&lt;br&gt;&lt;/font&gt;&lt;/span&gt;&lt;span style=&quot;box-sizing: border-box; color: transparent; cursor: text; position: absolute; transform-origin: 0px 0px; text-align: start; background-color: rgb(255, 255, 255); left: 298.863px; top: 208.914px; font-family: sans-serif; font-size: 19px;&quot; dir=&quot;ltr&quot; role=&quot;presentation&quot;&gt;&lt;font style=&quot;font-size: 19px;&quot;&gt;2&lt;/font&gt;&lt;/span&gt;" style="text;html=1;strokeColor=none;fillColor=none;align=center;verticalAlign=middle;whiteSpace=wrap;rounded=0;" vertex="1" parent="1">
          <mxGeometry x="30" y="260" width="200" height="50" as="geometry" />
        </mxCell>
        <mxCell id="GKoCl5mRJuVTZbslMC3Y-84" value="&lt;font style=&quot;font-size: 19px;&quot;&gt;&lt;font style=&quot;font-size: 19px;&quot; face=&quot;Times New Roman&quot;&gt;&lt;i style=&quot;&quot;&gt;Γ&lt;/i&gt;&lt;/font&gt;&lt;sub style=&quot;&quot;&gt;1,r&lt;/sub&gt;&lt;/font&gt;&lt;span style=&quot;box-sizing: border-box; color: transparent; cursor: text; position: absolute; transform-origin: 0px 0px; text-align: start; background-color: rgb(255, 255, 255); left: 298.863px; top: 208.914px; font-family: sans-serif; font-size: 19px;&quot; dir=&quot;ltr&quot; role=&quot;presentation&quot;&gt;&lt;font style=&quot;font-size: 19px;&quot;&gt;2&lt;/font&gt;&lt;/span&gt;&lt;span style=&quot;box-sizing: border-box; color: transparent; cursor: text; position: absolute; transform-origin: 0px 0px; text-align: start; background-color: rgb(255, 255, 255); left: 298.863px; top: 208.914px; font-family: sans-serif; font-size: 19px;&quot; dir=&quot;ltr&quot; role=&quot;presentation&quot;&gt;&lt;font style=&quot;font-size: 19px;&quot;&gt;&lt;br&gt;&lt;/font&gt;&lt;/span&gt;&lt;span style=&quot;box-sizing: border-box; color: transparent; cursor: text; position: absolute; transform-origin: 0px 0px; text-align: start; background-color: rgb(255, 255, 255); left: 298.863px; top: 208.914px; font-family: sans-serif; font-size: 19px;&quot; dir=&quot;ltr&quot; role=&quot;presentation&quot;&gt;&lt;font style=&quot;font-size: 19px;&quot;&gt;2&lt;/font&gt;&lt;/span&gt;" style="text;html=1;strokeColor=none;fillColor=none;align=center;verticalAlign=middle;whiteSpace=wrap;rounded=0;" vertex="1" parent="1">
          <mxGeometry x="150" y="260" width="200" height="50" as="geometry" />
        </mxCell>
        <mxCell id="GKoCl5mRJuVTZbslMC3Y-85" value="&lt;font style=&quot;font-size: 19px;&quot;&gt;&lt;i style=&quot;&quot;&gt;&lt;font style=&quot;font-size: 19px;&quot; face=&quot;Times New Roman&quot;&gt;Γ&lt;/font&gt;&lt;/i&gt;&lt;sub style=&quot;&quot;&gt;2,l&lt;/sub&gt;&lt;/font&gt;&lt;span style=&quot;box-sizing: border-box; color: transparent; cursor: text; position: absolute; transform-origin: 0px 0px; text-align: start; background-color: rgb(255, 255, 255); left: 298.863px; top: 208.914px; font-family: sans-serif; font-size: 19px;&quot; dir=&quot;ltr&quot; role=&quot;presentation&quot;&gt;&lt;font style=&quot;font-size: 19px;&quot;&gt;2&lt;/font&gt;&lt;/span&gt;&lt;span style=&quot;box-sizing: border-box; color: transparent; cursor: text; position: absolute; transform-origin: 0px 0px; text-align: start; background-color: rgb(255, 255, 255); left: 298.863px; top: 208.914px; font-family: sans-serif; font-size: 19px;&quot; dir=&quot;ltr&quot; role=&quot;presentation&quot;&gt;&lt;font style=&quot;font-size: 19px;&quot;&gt;&lt;br&gt;&lt;/font&gt;&lt;/span&gt;&lt;span style=&quot;box-sizing: border-box; color: transparent; cursor: text; position: absolute; transform-origin: 0px 0px; text-align: start; background-color: rgb(255, 255, 255); left: 298.863px; top: 208.914px; font-family: sans-serif; font-size: 19px;&quot; dir=&quot;ltr&quot; role=&quot;presentation&quot;&gt;&lt;font style=&quot;font-size: 19px;&quot;&gt;2&lt;/font&gt;&lt;/span&gt;" style="text;html=1;strokeColor=none;fillColor=none;align=center;verticalAlign=middle;whiteSpace=wrap;rounded=0;" vertex="1" parent="1">
          <mxGeometry x="30" y="450" width="200" height="50" as="geometry" />
        </mxCell>
        <mxCell id="GKoCl5mRJuVTZbslMC3Y-86" value="&lt;font style=&quot;font-size: 19px;&quot;&gt;&lt;font style=&quot;font-size: 19px;&quot; face=&quot;Times New Roman&quot;&gt;&lt;i style=&quot;&quot;&gt;Γ&lt;/i&gt;&lt;/font&gt;&lt;sub style=&quot;&quot;&gt;2,r&lt;/sub&gt;&lt;/font&gt;&lt;span style=&quot;box-sizing: border-box; color: transparent; cursor: text; position: absolute; transform-origin: 0px 0px; text-align: start; background-color: rgb(255, 255, 255); left: 298.863px; top: 208.914px; font-family: sans-serif; font-size: 19px;&quot; dir=&quot;ltr&quot; role=&quot;presentation&quot;&gt;&lt;font style=&quot;font-size: 19px;&quot;&gt;2&lt;/font&gt;&lt;/span&gt;&lt;span style=&quot;box-sizing: border-box; color: transparent; cursor: text; position: absolute; transform-origin: 0px 0px; text-align: start; background-color: rgb(255, 255, 255); left: 298.863px; top: 208.914px; font-family: sans-serif; font-size: 19px;&quot; dir=&quot;ltr&quot; role=&quot;presentation&quot;&gt;&lt;font style=&quot;font-size: 19px;&quot;&gt;&lt;br&gt;&lt;/font&gt;&lt;/span&gt;&lt;span style=&quot;box-sizing: border-box; color: transparent; cursor: text; position: absolute; transform-origin: 0px 0px; text-align: start; background-color: rgb(255, 255, 255); left: 298.863px; top: 208.914px; font-family: sans-serif; font-size: 19px;&quot; dir=&quot;ltr&quot; role=&quot;presentation&quot;&gt;&lt;font style=&quot;font-size: 19px;&quot;&gt;2&lt;/font&gt;&lt;/span&gt;" style="text;html=1;strokeColor=none;fillColor=none;align=center;verticalAlign=middle;whiteSpace=wrap;rounded=0;" vertex="1" parent="1">
          <mxGeometry x="150" y="450" width="200" height="50" as="geometry" />
        </mxCell>
        <mxCell id="GKoCl5mRJuVTZbslMC3Y-87" value="&lt;font style=&quot;font-size: 19px;&quot;&gt;&lt;i style=&quot;&quot;&gt;&lt;font style=&quot;font-size: 19px;&quot; face=&quot;Times New Roman&quot;&gt;Γ&lt;/font&gt;&lt;/i&gt;&lt;sub style=&quot;&quot;&gt;1&lt;/sub&gt;&lt;/font&gt;&lt;span style=&quot;box-sizing: border-box; color: transparent; cursor: text; position: absolute; transform-origin: 0px 0px; text-align: start; background-color: rgb(255, 255, 255); left: 298.863px; top: 208.914px; font-family: sans-serif; font-size: 19px;&quot; dir=&quot;ltr&quot; role=&quot;presentation&quot;&gt;&lt;font style=&quot;font-size: 19px;&quot;&gt;2&lt;/font&gt;&lt;/span&gt;&lt;span style=&quot;box-sizing: border-box; color: transparent; cursor: text; position: absolute; transform-origin: 0px 0px; text-align: start; background-color: rgb(255, 255, 255); left: 298.863px; top: 208.914px; font-family: sans-serif; font-size: 19px;&quot; dir=&quot;ltr&quot; role=&quot;presentation&quot;&gt;&lt;font style=&quot;font-size: 19px;&quot;&gt;&lt;br&gt;&lt;/font&gt;&lt;/span&gt;&lt;span style=&quot;box-sizing: border-box; color: transparent; cursor: text; position: absolute; transform-origin: 0px 0px; text-align: start; background-color: rgb(255, 255, 255); left: 298.863px; top: 208.914px; font-family: sans-serif; font-size: 19px;&quot; dir=&quot;ltr&quot; role=&quot;presentation&quot;&gt;&lt;font style=&quot;font-size: 19px;&quot;&gt;2&lt;/font&gt;&lt;/span&gt;" style="text;html=1;strokeColor=none;fillColor=none;align=center;verticalAlign=middle;whiteSpace=wrap;rounded=0;" vertex="1" parent="1">
          <mxGeometry x="90" y="140" width="200" height="50" as="geometry" />
        </mxCell>
        <mxCell id="GKoCl5mRJuVTZbslMC3Y-109" value="&lt;font style=&quot;font-size: 21px;&quot;&gt;&lt;i style=&quot;font-family: &amp;quot;Times New Roman&amp;quot;;&quot;&gt;B&lt;/i&gt;(&lt;i&gt;&lt;font face=&quot;Times New Roman&quot;&gt;Γ&lt;/font&gt;&lt;/i&gt;&lt;sub&gt;1&lt;/sub&gt;, &lt;font face=&quot;Times New Roman&quot;&gt;&lt;i&gt;Γ&lt;/i&gt;&lt;/font&gt;&lt;sub&gt;2&lt;/sub&gt;)&lt;/font&gt;&lt;span style=&quot;box-sizing: border-box; color: transparent; cursor: text; position: absolute; transform-origin: 0px 0px; text-align: start; background-color: rgb(255, 255, 255); left: 298.863px; top: 208.914px; font-family: sans-serif; font-size: 21px;&quot; dir=&quot;ltr&quot; role=&quot;presentation&quot;&gt;&lt;font style=&quot;font-size: 21px;&quot;&gt;2&lt;/font&gt;&lt;/span&gt;&lt;span style=&quot;box-sizing: border-box; color: transparent; cursor: text; position: absolute; transform-origin: 0px 0px; text-align: start; background-color: rgb(255, 255, 255); left: 298.863px; top: 208.914px; font-family: sans-serif; font-size: 21px;&quot; dir=&quot;ltr&quot; role=&quot;presentation&quot;&gt;&lt;font style=&quot;font-size: 21px;&quot;&gt;&lt;br&gt;&lt;/font&gt;&lt;/span&gt;&lt;span style=&quot;box-sizing: border-box; color: transparent; cursor: text; position: absolute; transform-origin: 0px 0px; text-align: start; background-color: rgb(255, 255, 255); left: 298.863px; top: 208.914px; font-family: sans-serif; font-size: 21px;&quot; dir=&quot;ltr&quot; role=&quot;presentation&quot;&gt;&lt;font style=&quot;font-size: 21px;&quot;&gt;2&lt;/font&gt;&lt;/span&gt;" style="text;html=1;strokeColor=none;fillColor=none;align=center;verticalAlign=middle;whiteSpace=wrap;rounded=0;" vertex="1" parent="1">
          <mxGeometry x="530" y="40" width="200" height="50" as="geometry" />
        </mxCell>
      </root>
    </mxGraphModel>
  </diagram>
</mxfile>
